<svg width="70" height="70" viewBox="0 0 70 70" fill="none" xmlns="http://www.w3.org/2000/svg">
<path d="M15.229 50.8497C17.7741 53.2182 20.7651 54.8669 23.7893 56.1381C26.9586 57.4989 30.3062 58.5718 33.7204 58.8896C38.2726 59.3134 44.8547 58.4036 46.079 53.1887C47.2701 48.3514 42.8162 44.2066 38.6872 42.4519C34.268 40.518 29.1354 39.7357 24.4275 40.211C21.8838 40.4309 19.452 41.1181 17.4782 42.6852C15.5043 44.2524 14.6019 46.6805 14.6925 49.125C14.6487 50.4912 16.8689 50.4695 16.8235 49.2473C16.718 40.0262 30.5424 41.9982 36.1889 43.8941C37.8181 44.5026 39.4473 45.111 40.664 46.0616C42.3159 47.2812 43.812 49.3998 43.9359 51.4667C44.3847 55.9238 38.383 57.1921 34.9689 56.8743C28.4307 56.4179 21.3893 53.8592 16.355 49.3559C15.8079 48.6198 14.1575 49.9887 15.229 50.8497Z" fill="#EDF0EF"/>
<path d="M16.5653 49.7002C21.5068 49.1708 26.5495 50.097 31.5363 50.7896C32.0607 50.9145 32.6515 50.2845 32.6289 49.6735C32.6062 49.0625 32.2602 48.6497 31.5016 48.579C26.3697 47.7968 21.0928 46.9249 16.0622 47.5982C15.4486 47.6172 15.1479 48.4265 15.2597 48.8936C15.4275 49.5942 15.9518 49.7191 16.5653 49.7002Z" fill="#EDF0EF"/>
<path d="M17.3763 34.2163C21.0845 32.1221 24.6473 29.9381 28.0089 27.4304C31.6943 24.7242 36.1729 21.7106 38.3827 17.4949C39.1305 15.9636 39.5876 14.2528 38.961 12.6699C38.1332 10.7633 36.0658 9.88473 34.1997 9.32987C31.2832 8.52476 28.3894 8.33164 25.6862 9.45219C22.8378 10.483 20.4479 12.395 18.4046 14.7205C14.2287 19.5155 11.3952 27.3324 15.1636 33.2481C15.9128 34.3088 17.8228 33.4956 17.0177 32.2009C13.9091 27.4901 15.9616 21.5826 18.9312 17.4376C22.0795 13.0043 27.0272 9.88194 32.6589 11.1685C34.0891 11.4541 36.3351 12.0443 37.051 13.4831C37.5655 14.5982 36.9964 15.8412 36.3713 16.8503C34.1388 20.454 30.4533 23.1603 26.9465 25.5782C23.5849 28.0859 20.022 30.2699 16.3139 32.3641C15.1076 33.0141 16.0807 35.0105 17.3763 34.2163Z" fill="#EDF0EF"/>
<path d="M17.0045 32.2178C19.5643 28.4121 22.7619 25.1998 25.8141 21.8976C26.2278 21.5546 26.2945 20.7979 25.9476 20.3841C25.6006 19.9704 24.8399 19.8997 24.4262 20.2427C21.4301 23.7789 17.9082 27.19 15.3484 30.9957C14.5436 32.2942 16.2892 33.3721 17.0045 32.2178Z" fill="#EDF0EF"/>
<path d="M40.4103 35.4385C45.7144 36.9227 51.8669 38.3336 57.3479 36.9393C60.7191 36.0343 64.2461 34.2296 66.4104 31.3837C67.3587 30.1769 67.8714 28.701 67.5357 27.2984C66.9988 25.5724 65.5802 24.2976 64.039 23.5446C59.9404 21.4108 55.1399 22.0304 50.9989 23.8541C46.6235 25.7322 42.3493 29.0672 40.1411 33.2803C39.5725 34.5224 41.3148 35.5989 41.8834 34.3567C43.7014 31.0977 46.6809 28.5564 49.8283 26.7163C53.2101 24.8218 57.3178 23.3759 61.1926 24.5747C63.5822 25.2543 66.6312 27.138 64.9358 29.8751C63.2736 32.2344 60.1595 33.6967 57.5476 34.6724C52.1225 36.3004 46.3496 34.9249 41.0456 33.4407C39.7056 33.0112 39.0703 35.009 40.4103 35.4385Z" fill="#EDF0EF"/>
<path d="M42.3735 34.8793C46.1018 33.3981 49.7968 32.2947 53.5251 30.8134C54.0832 30.5606 54.1497 29.805 54.0378 29.3374C53.7807 28.7802 53.1106 28.5654 52.5525 28.8182C48.8242 30.2994 45.1292 31.4028 41.401 32.8841C40.8429 33.1369 40.7764 33.8925 40.8883 34.3601C41.2906 35.0071 41.9047 34.9881 42.3735 34.8793Z" fill="#EDF0EF"/>
</svg>
