<svg width="42" height="42" viewBox="0 0 42 42" fill="none" xmlns="http://www.w3.org/2000/svg">
<g clip-path="url(#clip0_68_893)">
<path d="M36.9787 21.3414C36.9787 30.3017 29.7149 37.5655 20.7547 37.5655C11.7944 37.5655 4.53063 30.3017 4.53063 21.3414C4.53063 12.3812 11.7944 5.11742 20.7547 5.11742C29.7149 5.11742 36.9787 12.3812 36.9787 21.3414Z" fill="white"/>
<path d="M20.7547 0.791016C9.40153 0.791016 0.204224 9.98965 0.204224 21.3414C0.204224 32.6932 9.40286 41.8919 20.7547 41.8919C32.1078 41.8919 41.3051 32.6932 41.3051 21.3414C41.3051 9.98965 32.1064 0.791016 20.7547 0.791016ZM30.8482 14.87L27.4753 30.7641C27.226 31.8911 26.5552 32.1642 25.6191 31.6339L20.4815 27.8473L18.0035 30.2338C17.7304 30.5069 17.4984 30.739 16.9681 30.739L17.3327 25.5099L26.8535 16.9079C27.2685 16.5432 26.762 16.3364 26.2144 16.701L14.4477 24.1085L9.37634 22.5254C8.27458 22.178 8.24938 21.4236 9.60836 20.8933L29.4216 13.2525C30.3418 12.9211 31.1452 13.4766 30.8469 14.8687L30.8482 14.87Z" fill="#36ACF2"/>
</g>
<defs>
<clipPath id="clip0_68_893">
<rect width="41.1009" height="41.1009" fill="white" transform="translate(0.204224 0.791016)"/>
</clipPath>
</defs>
</svg>
